<?xml version="1.0" encoding="UTF-8"?>
<svg width="18px" height="9px" viewBox="0 0 18 9" version="1.1" xmlns="http://www.w3.org/2000/svg" xmlns:xlink="http://www.w3.org/1999/xlink">
    <!-- Generator: Sketch 44 (41411) - http://www.bohemiancoding.com/sketch -->
    <title>link-closed</title>
    <desc>Created with Sketch.</desc>
    <defs></defs>
    <g id="Page-1" stroke="none" stroke-width="1" fill="none" fill-rule="evenodd">
        <g id="desktop-copy-2" transform="translate(-135.000000, -900.000000)" fill="#FF3D00">
            <g id="Group-2" transform="translate(128.000000, 727.000000)">
                <g id="link-closed" transform="translate(7.093023, 173.541667)">
                    <path d="M0.0325812988,3.55855883 C0.100392583,3.27451687 0.149687585,2.98416848 0.23932601,2.70769425 C0.755574666,1.1125439 2.22253017,0.0238004959 3.85282135,0.0190076032 C4.95447882,0.0157282556 6.05576841,0.0177463157 7.1575485,0.0185030882 C7.49770854,0.0190076032 7.7403822,0.250579996 7.74283468,0.573343477 C7.74516455,0.911873053 7.50960311,1.14874285 7.16036886,1.1493735 C6.07011546,1.15126543 4.98022994,1.14546351 3.89009917,1.15139156 C2.72835575,1.15769799 1.70260278,1.89883055 1.30628077,3.00586263 C0.689725372,4.72777238 1.80609776,6.59712664 3.58390608,6.78240978 C4.12369862,6.83866321 4.67219749,6.81192391 5.21677238,6.81558164 C5.87636894,6.82012228 6.53621075,6.81457261 7.19605256,6.8175997 C7.47342891,6.81898712 7.70138764,7.02129764 7.73952383,7.28742931 C7.78048037,7.57210191 7.6247474,7.83659391 7.36061448,7.92324436 C7.3073955,7.94077626 7.24853579,7.94746108 7.1922512,7.94746108 C6.0677856,7.94910076 4.94307475,7.95641622 3.8188544,7.94746108 C1.92725065,7.93257789 0.302232319,6.43669087 0.0654446337,4.50528126 C0.0612754046,4.47198327 0.0438627421,4.44057721 0.0325812988,4.40828824 L0.0325812988,3.55855883 Z" id="Fill-1"></path>
                    <path d="M17.6579113,4.40826302 C17.6118045,4.61902417 17.5740362,4.83205563 17.5184874,5.04029421 C17.0610984,6.75261817 15.5437443,7.94478715 13.8192776,7.9480665 C12.7292694,7.94995843 11.639016,7.94882327 10.5490079,7.94819263 C10.1861623,7.9480665 9.94312079,7.71535895 9.94643165,7.37493744 C9.94998776,7.04384946 10.1946234,6.81555642 10.5465554,6.81568255 C11.6193961,6.81606093 12.6923595,6.82060157 13.7652002,6.81555642 C15.0398807,6.80950224 16.126578,5.96696216 16.4525136,4.74174744 C16.9357763,2.9259979 15.6324017,1.1687721 13.7806509,1.15199698 C12.6906427,1.1420328 11.600512,1.1512402 10.5102586,1.15048343 C10.2510306,1.1503573 10.0548316,1.00669665 9.97377689,0.763015898 C9.89934389,0.538885102 9.96114658,0.282717602 10.1515822,0.145615647 C10.2447768,0.0783890206 10.3700989,0.0245320427 10.4811966,0.0237752701 C11.6629278,0.0157030299 12.8451495,0.000819836901 14.0266354,0.0247843002 C15.7119849,0.05921745 17.2971503,1.49632847 17.588138,3.21773371 C17.6072674,3.33200636 17.63449,3.4448916 17.6579113,3.5585336 L17.6579113,4.40826302 Z" id="Fill-4"></path>
                    <path d="M8.84141428,4.54757223 C8.48053072,4.54757223 6.16942895,4.5492119 5.80866801,4.54706771 C5.47684643,4.54517578 5.24042662,4.30300857 5.24336961,3.97267737 C5.24618997,3.65294098 5.48359077,3.41695408 5.80793227,3.41632343 C6.52969939,3.41506214 11.1521482,3.41506214 11.8737927,3.41632343 C12.2100287,3.41682795 12.4470617,3.65256259 12.4470617,3.98150638 C12.4470617,4.3105763 12.2099061,4.54618481 11.8742832,4.54731997 C11.5133996,4.54845513 9.20229784,4.54757223 8.84141428,4.54757223" id="Fill-6"></path>
                </g>
            </g>
        </g>
    </g>
</svg>