<?xml version="1.0" encoding="UTF-8"?>
<svg width="18px" height="17px" viewBox="0 0 18 17" version="1.1" xmlns="http://www.w3.org/2000/svg" xmlns:xlink="http://www.w3.org/1999/xlink">
    <!-- Generator: Sketch 44 (41411) - http://www.bohemiancoding.com/sketch -->
    <title>broken-chain-icon</title>
    <desc>Created with Sketch.</desc>
    <defs></defs>
    <g id="Page-1" stroke="none" stroke-width="1" fill="none" fill-rule="evenodd">
        <g id="desktop-copy-2" transform="translate(-462.000000, -895.000000)" fill="#7ED321">
            <g id="Group-6" transform="translate(455.000000, 727.000000)">
                <g id="broken-chain-icon" transform="translate(7.000000, 168.000000)">
                    <path d="M-1.36363642e-05,8.0787536 C0.0692590909,7.7987296 0.119304545,7.5123136 0.210122727,7.2393616 C0.735668182,5.6661136 2.22789545,4.5921216 3.88607727,4.5876336 C5.00685,4.5843696 6.12735,4.5866816 7.24771364,4.5873616 C7.59394091,4.5876336 7.84089545,4.8159776 7.84335,5.1346256 C7.84566818,5.4683696 7.60566818,5.7020176 7.25071364,5.7025616 C6.14166818,5.7043296 5.03289545,5.6987536 3.92412273,5.7043296 C2.74239545,5.7108576 1.69894091,6.4418576 1.29598636,7.5335296 C0.668440909,9.2320336 1.80407727,11.0757856 3.61253182,11.2584336 C4.16194091,11.3141936 4.71966818,11.2874016 5.27371364,11.2910736 C5.94489545,11.2958336 6.61607727,11.2903936 7.28712273,11.2933856 C7.56925909,11.2946096 7.80094091,11.4939856 7.83980455,11.7567376 C7.88166818,12.0373056 7.72348636,12.2985616 7.45444091,12.3841056 C7.40044091,12.4011056 7.34044091,12.4076336 7.28316818,12.4076336 C6.13921364,12.4089936 4.99539545,12.4166096 3.85144091,12.4076336 C1.92748636,12.3929456 0.274622727,10.9176176 0.0335318182,9.0125296 C0.0293045455,8.9798896 0.0114409091,8.9490176 -1.36363642e-05,8.9167856 L-1.36363642e-05,8.0787536 Z" id="Fill-1"></path>
                    <path d="M17.9291455,8.9167312 C17.8825091,9.1246752 17.8439182,9.3350672 17.7874636,9.5400192 C17.3221909,11.2291392 15.7786909,12.4051312 14.0243727,12.4079872 C12.9156,12.4102992 11.8069636,12.4090752 10.6979182,12.4083952 C10.3287818,12.4079872 10.0815545,12.1786912 10.0851,11.8430432 C10.0885091,11.5160992 10.3375091,11.2910192 10.6954636,11.2912912 C11.7869182,11.2915632 12.8783727,11.2963232 13.9695545,11.2910192 C15.2663727,11.2854432 16.3716,10.4543472 16.7032364,9.2458512 C17.1948273,7.4547312 15.8691,5.7218192 13.9852364,5.7053632 C12.8764636,5.6954352 11.7674182,5.7042752 10.6585091,5.7037312 C10.3945091,5.7037312 10.1952818,5.5618832 10.1127818,5.3215712 C10.0371,5.1004352 10.0999636,4.8476112 10.2936,4.7122912 C10.3883727,4.6464672 10.5157364,4.5931552 10.6289182,4.5922032 C11.8311,4.5844512 13.0336909,4.5694912 14.2356,4.5931552 C15.9499636,4.6270192 17.5621909,6.0446832 17.8582364,7.7427792 C17.8777364,7.8552512 17.9054182,7.9669072 17.9291455,8.0786992 L17.9291455,8.9167312 Z" id="Fill-4"></path>
                    <path d="M8.46972273,15.1858144 C8.46999545,14.8311264 8.46699545,14.4767104 8.47054091,14.1217504 C8.47449545,13.7628464 8.70113182,13.5274304 9.03508636,13.5274304 C9.35949545,13.5270224 9.59226818,13.7765824 9.59281364,14.1312704 C9.59417727,14.8458144 9.59417727,15.5610384 9.59281364,16.2758544 C9.59226818,16.6342144 9.36563182,16.8772464 9.03508636,16.8788784 C8.70358636,16.8801024 8.47313182,16.6403344 8.47054091,16.2840144 C8.46754091,15.9181744 8.46972273,15.5517904 8.46972273,15.1858144" id="Fill-7"></path>
                    <path d="M9.5244,1.7963832 C9.5244,2.1619512 9.52603636,2.5281992 9.52385455,2.8943112 C9.52194545,3.2309112 9.28235455,3.4709512 8.95576364,3.4679592 C8.6394,3.4649672 8.40580909,3.2243832 8.40553636,2.8952632 C8.40417273,2.1626312 8.40417273,1.4306792 8.40553636,0.6983192 C8.40580909,0.3570952 8.6394,0.1167832 8.96435455,0.1167832 C9.28971818,0.1167832 9.52276364,0.3573672 9.52385455,0.6981832 C9.52521818,1.0637512 9.5244,1.4299992 9.5244,1.7963832" id="Fill-9"></path>
                    <path d="M12.4509,15.669716 C12.3838091,15.634084 12.2301273,15.590292 12.1281273,15.492916 C11.6897182,15.074308 11.2633091,14.64346 10.8388091,14.21098 C10.6075364,13.975292 10.6083545,13.632436 10.8265364,13.411844 C11.0500364,13.185812 11.3994,13.187716 11.6402182,13.424356 C12.0678545,13.845548 12.4930364,14.269188 12.9156273,14.695684 C13.1036727,14.885268 13.1497636,15.118644 13.0455818,15.334884 C12.9441273,15.547452 12.7719,15.661148 12.4509,15.669716" id="Fill-11"></path>
                    <path d="M6.68926364,3.7536408 C6.62421818,3.7195048 6.47162727,3.6758488 6.37017273,3.5787448 C5.92835455,3.1575528 5.49976364,2.7228968 5.07021818,2.2890568 C4.84249091,2.0593528 4.84276364,1.7117368 5.0619,1.4915528 C5.27899091,1.2730008 5.63271818,1.2687848 5.86235455,1.4940008 C6.29830909,1.9210408 6.72949091,2.3539288 7.15985455,2.7864088 C7.3389,2.9660648 7.37421818,3.1846168 7.28026364,3.4126888 C7.19026364,3.6308328 7.01230909,3.7397688 6.68926364,3.7536408" id="Fill-13"></path>
                    <path d="M5.50114091,15.7013224 C5.24764091,15.6578024 5.06859545,15.5553944 4.97382273,15.3358904 C4.88027727,15.1210104 4.89895909,14.9066744 5.06491364,14.7365384 C5.50727727,14.2833864 5.95577727,13.8344504 6.41095909,13.3938104 C6.62955,13.1819224 6.97455,13.1972904 7.18386818,13.4052344 C7.40355,13.6235144 7.41800455,13.9628344 7.19723182,14.1883224 C6.75800455,14.6372584 6.31427727,15.0818424 5.86045909,15.5158184 C5.76718636,15.6050344 5.62236818,15.6408024 5.50114091,15.7013224" id="Fill-15"></path>
                    <path d="M11.2784864,3.7522536 C10.9817591,3.7451816 10.8065318,3.6449496 10.7045318,3.4393176 C10.5998045,3.2281096 10.6081227,3.0065656 10.7716227,2.8367016 C11.2246227,2.3670936 11.6864864,1.9056456 12.1576227,1.4541256 C12.35985,1.2601896 12.7083955,1.2916056 12.9055773,1.4879896 C13.10685,1.6888616 13.1425773,2.0295416 12.9470318,2.2328616 C12.4914409,2.7077736 12.02235,3.1704456 11.5480773,3.6268616 C11.46735,3.7045176 11.33385,3.7279096 11.2784864,3.7522536" id="Fill-17"></path>
                </g>
            </g>
        </g>
    </g>
</svg>