<?xml version="1.0" encoding="utf-8"?>
<!-- Generator: Adobe Illustrator 19.2.1, SVG Export Plug-In . SVG Version: 6.00 Build 0)  -->
<svg version="1.1" id="Layer_1" xmlns="http://www.w3.org/2000/svg" xmlns:xlink="http://www.w3.org/1999/xlink" x="0px" y="0px"
	 viewBox="0 0 506.2 115.9" style="enable-background:new 0 0 506.2 115.9;" xml:space="preserve">
<style type="text/css">
	.st0{fill:#231F20;}
	.st1{font-family:'SpaceMono-Regular';}
	.st2{font-size:100px;}
	.st3{fill:#FFFFFF;}
	.st4{fill:none;stroke:#231F20;}
</style>
<g>
	<path class="st0" d="M446,75.7C452.9,82.5,461.9,86,471,86c9,0,18.1-3.4,24.9-10.3c6.6-6.6,10-15.2,10.3-23.8
		c0.3-9.4-3.1-18.8-10.3-26C489,18.9,480,15.5,471,15.5c-9,0-18,3.4-24.9,10.3c-6.6,6.6-10,15.2-10.3,23.8
		C435.5,59,438.9,68.5,446,75.7"/>
	<text transform="matrix(1 0 0 1 0 84.999)" class="st0 st1 st2">SUPPORT</text>
	<path class="st3" d="M470.9,61.3h2.5v-21h0.4l3,21h4.8l3-21h0.4v21h2.5V39.2h-5.1l-3,21h-0.4l-3-21h-5V61.3z M453.2,61.3h2.7v-9.8
		h10.7V49h-10.7v-7.3h10.9v-2.5h-13.6V61.3z"/>
	<path class="st4" d="M441.8,79.4c8.1,8.1,18.6,12.1,29.2,12.1c10.6,0,21.1-4,29.2-12.1"/>
	<path class="st4" d="M437.6,83.7c9.2,9.2,21.3,13.8,33.4,13.8c12.1,0,24.2-4.6,33.4-13.8"/>
	<path class="st4" d="M500.1,21.1c-8-8-18.5-12-29-12.1c-10.6,0-21.2,4-29.3,12.1"/>
	<path class="st4" d="M504.4,16.8C495.2,7.6,483.1,3,471,3c-12.1,0-24.2,4.6-33.4,13.8"/>
</g>
</svg>
